<svg xmlns="http://www.w3.org/2000/svg" width="760" height="340" viewBox="0 0 760 340" role="img" aria-labelledby="title desc" font-family="system-ui, -apple-system, &quot;Segoe UI&quot;, Helvetica, Arial, sans-serif">
<title id="title">Installs</title>
<desc id="desc">Cumulative installer downloads across all versions from 2026-09-01 to 2026-09-28. Total 83: Windows Setup 65, Windows Portable 14, Linux AppImage 4.</desc>
<rect x="0.5" y="0.5" width="759" height="339" rx="8" fill="#fcfcfb" stroke="rgba(11,11,11,0.10)"/>
<text x="48" y="34" font-size="16" font-weight="600" fill="#0b0b0b">Installs: 83</text>
<text x="48" y="56" font-size="13" fill="#52514e">Cumulative installer downloads across all versions</text>
<line x1="48" y1="76" x2="64" y2="76" stroke="#2a78d6" stroke-width="2" stroke-linecap="round"/>
<text x="70" y="80" font-size="12" fill="#52514e">Windows Setup</text>
<line x1="176.60000000000002" y1="76" x2="192.60000000000002" y2="76" stroke="#eb6834" stroke-width="2" stroke-linecap="round"/>
<text x="198.60000000000002" y="80" font-size="12" fill="#52514e">Windows Portable</text>
<line x1="323.8" y1="76" x2="339.8" y2="76" stroke="#1baf7a" stroke-width="2" stroke-linecap="round"/>
<text x="345.8" y="80" font-size="12" fill="#52514e">Linux AppImage</text>
<line x1="458.6" y1="70" x2="458.6" y2="82" stroke="#898781"/>
<text x="466.6" y="80" font-size="12" fill="#52514e">Release</text>
<line x1="48" y1="300.0" x2="610" y2="300.0" stroke="#c3c2b7"/>
<text x="40" y="304.0" font-size="11" text-anchor="end" fill="#898781" style="font-variant-numeric: tabular-nums">0</text>
<line x1="48" y1="249.0" x2="610" y2="249.0" stroke="#e1e0d9"/>
<text x="40" y="253.0" font-size="11" text-anchor="end" fill="#898781" style="font-variant-numeric: tabular-nums">20</text>
<line x1="48" y1="198.0" x2="610" y2="198.0" stroke="#e1e0d9"/>
<text x="40" y="202.0" font-size="11" text-anchor="end" fill="#898781" style="font-variant-numeric: tabular-nums">40</text>
<line x1="48" y1="147.0" x2="610" y2="147.0" stroke="#e1e0d9"/>
<text x="40" y="151.0" font-size="11" text-anchor="end" fill="#898781" style="font-variant-numeric: tabular-nums">60</text>
<line x1="48" y1="96.0" x2="610" y2="96.0" stroke="#e1e0d9"/>
<text x="40" y="100.0" font-size="11" text-anchor="end" fill="#898781" style="font-variant-numeric: tabular-nums">80</text>
<text x="48.0" y="324" font-size="11" text-anchor="start" fill="#898781">Sep 1</text>
<text x="193.7" y="324" font-size="11" text-anchor="middle" fill="#898781">Sep 8</text>
<text x="339.4" y="324" font-size="11" text-anchor="middle" fill="#898781">Sep 15</text>
<text x="464.3" y="324" font-size="11" text-anchor="middle" fill="#898781">Sep 21</text>
<text x="610.0" y="324" font-size="11" text-anchor="end" fill="#898781">Sep 28</text>
<line x1="48.0" y1="302" x2="48.0" y2="308" stroke="#898781"><title>v1.0.6 (2026-09-01)</title></line>
<line x1="68.8" y1="302" x2="68.8" y2="308" stroke="#898781"><title>v1.0.9 (2026-09-02)</title></line>
<line x1="89.6" y1="302" x2="89.6" y2="308" stroke="#898781"><title>v1.1.2 (2026-09-03)</title></line>
<line x1="131.3" y1="302" x2="131.3" y2="308" stroke="#898781"><title>v1.1.3 (2026-09-05)</title></line>
<line x1="172.9" y1="302" x2="172.9" y2="308" stroke="#898781"><title>v1.1.6 (2026-09-07)</title></line>
<line x1="360.2" y1="302" x2="360.2" y2="308" stroke="#898781"><title>v1.1.7 (2026-09-16)</title></line>
<line x1="547.6" y1="302" x2="547.6" y2="308" stroke="#898781"><title>v1.1.9 (2026-09-25)</title></line>
<polyline points="48.0,279.6 68.8,271.9 89.6,256.6 131.3,190.4 172.9,167.4 360.2,144.5 547.6,144.5 568.4,141.9 589.2,139.3 610.0,134.2" fill="none" stroke="#2a78d6" stroke-width="2" stroke-linejoin="round" stroke-linecap="round"/>
<polyline points="48.0,292.4 68.8,289.8 89.6,287.2 131.3,274.5 172.9,271.9 360.2,266.9 547.6,266.9 568.4,266.9 589.2,266.9 610.0,264.3" fill="none" stroke="#eb6834" stroke-width="2" stroke-linejoin="round" stroke-linecap="round"/>
<polyline points="48.0,297.4 68.8,297.4 89.6,297.4 131.3,297.4 172.9,294.9 360.2,289.8 547.6,289.8 568.4,289.8 589.2,289.8 610.0,289.8" fill="none" stroke="#1baf7a" stroke-width="2" stroke-linejoin="round" stroke-linecap="round"/>
<circle cx="610.0" cy="134.2" r="4" fill="#2a78d6" stroke="#fcfcfb" stroke-width="2"><title>Windows Setup: 65</title></circle>
<text x="626.0" y="138.2" font-size="12" fill="#52514e"><tspan font-weight="600" fill="#0b0b0b">65</tspan> Windows Setup</text>
<circle cx="610.0" cy="264.3" r="4" fill="#eb6834" stroke="#fcfcfb" stroke-width="2"><title>Windows Portable: 14</title></circle>
<text x="626.0" y="268.3" font-size="12" fill="#52514e"><tspan font-weight="600" fill="#0b0b0b">14</tspan> Windows Portable</text>
<circle cx="610.0" cy="289.8" r="4" fill="#1baf7a" stroke="#fcfcfb" stroke-width="2"><title>Linux AppImage: 4</title></circle>
<text x="626.0" y="293.8" font-size="12" fill="#52514e"><tspan font-weight="600" fill="#0b0b0b">4</tspan> Linux AppImage</text>
</svg>
