<svg xmlns="http://www.w3.org/2000/svg" width="760" height="340" viewBox="0 0 760 340" role="img" aria-labelledby="title desc" font-family="system-ui, -apple-system, &quot;Segoe UI&quot;, Helvetica, Arial, sans-serif">
<title id="title">Installs</title>
<desc id="desc">Cumulative installer downloads across all versions from 2026-09-01 to 2026-10-09. Total 151: Windows Setup 107, Windows Portable 30, Linux AppImage 14.</desc>
<rect x="0.5" y="0.5" width="759" height="339" rx="8" fill="#1a1a19" stroke="rgba(255,255,255,0.10)"/>
<text x="48" y="34" font-size="16" font-weight="600" fill="#ffffff">Installs: 151</text>
<text x="48" y="56" font-size="13" fill="#c3c2b7">Cumulative installer downloads across all versions</text>
<line x1="48" y1="76" x2="64" y2="76" stroke="#3987e5" stroke-width="2" stroke-linecap="round"/>
<text x="70" y="80" font-size="12" fill="#c3c2b7">Windows Setup</text>
<line x1="176.60000000000002" y1="76" x2="192.60000000000002" y2="76" stroke="#d95926" stroke-width="2" stroke-linecap="round"/>
<text x="198.60000000000002" y="80" font-size="12" fill="#c3c2b7">Windows Portable</text>
<line x1="323.8" y1="76" x2="339.8" y2="76" stroke="#199e70" stroke-width="2" stroke-linecap="round"/>
<text x="345.8" y="80" font-size="12" fill="#c3c2b7">Linux AppImage</text>
<line x1="458.6" y1="70" x2="458.6" y2="82" stroke="#898781"/>
<text x="466.6" y="80" font-size="12" fill="#c3c2b7">Release</text>
<line x1="48" y1="300.0" x2="610" y2="300.0" stroke="#383835"/>
<text x="40" y="304.0" font-size="11" text-anchor="end" fill="#898781" style="font-variant-numeric: tabular-nums">0</text>
<line x1="48" y1="232.0" x2="610" y2="232.0" stroke="#2c2c2a"/>
<text x="40" y="236.0" font-size="11" text-anchor="end" fill="#898781" style="font-variant-numeric: tabular-nums">50</text>
<line x1="48" y1="164.0" x2="610" y2="164.0" stroke="#2c2c2a"/>
<text x="40" y="168.0" font-size="11" text-anchor="end" fill="#898781" style="font-variant-numeric: tabular-nums">100</text>
<line x1="48" y1="96.0" x2="610" y2="96.0" stroke="#2c2c2a"/>
<text x="40" y="100.0" font-size="11" text-anchor="end" fill="#898781" style="font-variant-numeric: tabular-nums">150</text>
<text x="48.0" y="324" font-size="11" text-anchor="start" fill="#898781">Sep 1</text>
<text x="195.9" y="324" font-size="11" text-anchor="middle" fill="#898781">Sep 11</text>
<text x="329.0" y="324" font-size="11" text-anchor="middle" fill="#898781">Sep 20</text>
<text x="462.1" y="324" font-size="11" text-anchor="middle" fill="#898781">Sep 29</text>
<text x="610.0" y="324" font-size="11" text-anchor="end" fill="#898781">Oct 9</text>
<line x1="48.0" y1="302" x2="48.0" y2="308" stroke="#898781"><title>v1.0.6 (2026-09-01)</title></line>
<line x1="62.8" y1="302" x2="62.8" y2="308" stroke="#898781"><title>v1.0.9 (2026-09-02)</title></line>
<line x1="77.6" y1="302" x2="77.6" y2="308" stroke="#898781"><title>v1.1.2 (2026-09-03)</title></line>
<line x1="107.2" y1="302" x2="107.2" y2="308" stroke="#898781"><title>v1.1.3 (2026-09-05)</title></line>
<line x1="136.7" y1="302" x2="136.7" y2="308" stroke="#898781"><title>v1.1.6 (2026-09-07)</title></line>
<line x1="269.8" y1="302" x2="269.8" y2="308" stroke="#898781"><title>v1.1.7 (2026-09-16)</title></line>
<line x1="402.9" y1="302" x2="402.9" y2="308" stroke="#898781"><title>v1.1.9 (2026-09-25)</title></line>
<line x1="491.7" y1="302" x2="491.7" y2="308" stroke="#898781"><title>v1.2.0 (2026-10-01)</title></line>
<line x1="536.1" y1="302" x2="536.1" y2="308" stroke="#898781"><title>v1.2.1 (2026-10-04)</title></line>
<line x1="580.4" y1="302" x2="580.4" y2="308" stroke="#898781"><title>v1.2.2 (2026-10-07)</title></line>
<polyline points="48.0,289.1 62.8,285.0 77.6,276.9 107.2,241.5 136.7,229.3 269.8,217.0 402.9,217.0 417.7,215.7 432.5,214.3 447.3,211.6 462.1,208.9 476.9,207.5 491.7,202.1 506.5,188.5 521.3,185.8 536.1,179.0 565.6,164.0 580.4,159.9 595.2,157.2 610.0,154.5" fill="none" stroke="#3987e5" stroke-width="2" stroke-linejoin="round" stroke-linecap="round"/>
<polyline points="48.0,295.9 62.8,294.6 77.6,293.2 107.2,286.4 136.7,285.0 269.8,282.3 402.9,282.3 417.7,282.3 432.5,282.3 447.3,281.0 462.1,281.0 476.9,281.0 491.7,278.2 506.5,272.8 521.3,270.1 536.1,263.3 565.6,260.6 580.4,259.2 595.2,259.2 610.0,259.2" fill="none" stroke="#d95926" stroke-width="2" stroke-linejoin="round" stroke-linecap="round"/>
<polyline points="48.0,298.6 62.8,298.6 77.6,298.6 107.2,298.6 136.7,297.3 269.8,294.6 402.9,294.6 417.7,294.6 432.5,294.6 447.3,294.6 462.1,294.6 476.9,294.6 491.7,293.2 506.5,291.8 521.3,291.8 536.1,282.3 565.6,281.0 580.4,281.0 595.2,281.0 610.0,281.0" fill="none" stroke="#199e70" stroke-width="2" stroke-linejoin="round" stroke-linecap="round"/>
<circle cx="610.0" cy="154.5" r="4" fill="#3987e5" stroke="#1a1a19" stroke-width="2"><title>Windows Setup: 107</title></circle>
<text x="626.0" y="158.5" font-size="12" fill="#c3c2b7"><tspan font-weight="600" fill="#ffffff">107</tspan> Windows Setup</text>
<circle cx="610.0" cy="259.2" r="4" fill="#d95926" stroke="#1a1a19" stroke-width="2"><title>Windows Portable: 30</title></circle>
<text x="626.0" y="263.2" font-size="12" fill="#c3c2b7"><tspan font-weight="600" fill="#ffffff">30</tspan> Windows Portable</text>
<circle cx="610.0" cy="281.0" r="4" fill="#199e70" stroke="#1a1a19" stroke-width="2"><title>Linux AppImage: 14</title></circle>
<text x="626.0" y="285.0" font-size="12" fill="#c3c2b7"><tspan font-weight="600" fill="#ffffff">14</tspan> Linux AppImage</text>
</svg>
