<svg xmlns="http://www.w3.org/2000/svg" width="760" height="340" viewBox="0 0 760 340" role="img" aria-labelledby="title desc" font-family="system-ui, -apple-system, &quot;Segoe UI&quot;, Helvetica, Arial, sans-serif">
<title id="title">Installs</title>
<desc id="desc">Cumulative installer downloads across all versions from 2026-09-01 to 2026-10-08. Total 149: Windows Setup 105, Windows Portable 30, Linux AppImage 14.</desc>
<rect x="0.5" y="0.5" width="759" height="339" rx="8" fill="#fcfcfb" stroke="rgba(11,11,11,0.10)"/>
<text x="48" y="34" font-size="16" font-weight="600" fill="#0b0b0b">Installs: 149</text>
<text x="48" y="56" font-size="13" fill="#52514e">Cumulative installer downloads across all versions</text>
<line x1="48" y1="76" x2="64" y2="76" stroke="#2a78d6" stroke-width="2" stroke-linecap="round"/>
<text x="70" y="80" font-size="12" fill="#52514e">Windows Setup</text>
<line x1="176.60000000000002" y1="76" x2="192.60000000000002" y2="76" stroke="#eb6834" stroke-width="2" stroke-linecap="round"/>
<text x="198.60000000000002" y="80" font-size="12" fill="#52514e">Windows Portable</text>
<line x1="323.8" y1="76" x2="339.8" y2="76" stroke="#1baf7a" stroke-width="2" stroke-linecap="round"/>
<text x="345.8" y="80" font-size="12" fill="#52514e">Linux AppImage</text>
<line x1="458.6" y1="70" x2="458.6" y2="82" stroke="#898781"/>
<text x="466.6" y="80" font-size="12" fill="#52514e">Release</text>
<line x1="48" y1="300.0" x2="610" y2="300.0" stroke="#c3c2b7"/>
<text x="40" y="304.0" font-size="11" text-anchor="end" fill="#898781" style="font-variant-numeric: tabular-nums">0</text>
<line x1="48" y1="232.0" x2="610" y2="232.0" stroke="#e1e0d9"/>
<text x="40" y="236.0" font-size="11" text-anchor="end" fill="#898781" style="font-variant-numeric: tabular-nums">50</text>
<line x1="48" y1="164.0" x2="610" y2="164.0" stroke="#e1e0d9"/>
<text x="40" y="168.0" font-size="11" text-anchor="end" fill="#898781" style="font-variant-numeric: tabular-nums">100</text>
<line x1="48" y1="96.0" x2="610" y2="96.0" stroke="#e1e0d9"/>
<text x="40" y="100.0" font-size="11" text-anchor="end" fill="#898781" style="font-variant-numeric: tabular-nums">150</text>
<text x="48.0" y="324" font-size="11" text-anchor="start" fill="#898781">Sep 1</text>
<text x="184.7" y="324" font-size="11" text-anchor="middle" fill="#898781">Sep 10</text>
<text x="321.4" y="324" font-size="11" text-anchor="middle" fill="#898781">Sep 19</text>
<text x="473.3" y="324" font-size="11" text-anchor="middle" fill="#898781">Sep 29</text>
<text x="610.0" y="324" font-size="11" text-anchor="end" fill="#898781">Oct 8</text>
<line x1="48.0" y1="302" x2="48.0" y2="308" stroke="#898781"><title>v1.0.6 (2026-09-01)</title></line>
<line x1="63.2" y1="302" x2="63.2" y2="308" stroke="#898781"><title>v1.0.9 (2026-09-02)</title></line>
<line x1="78.4" y1="302" x2="78.4" y2="308" stroke="#898781"><title>v1.1.2 (2026-09-03)</title></line>
<line x1="108.8" y1="302" x2="108.8" y2="308" stroke="#898781"><title>v1.1.3 (2026-09-05)</title></line>
<line x1="139.1" y1="302" x2="139.1" y2="308" stroke="#898781"><title>v1.1.6 (2026-09-07)</title></line>
<line x1="275.8" y1="302" x2="275.8" y2="308" stroke="#898781"><title>v1.1.7 (2026-09-16)</title></line>
<line x1="412.5" y1="302" x2="412.5" y2="308" stroke="#898781"><title>v1.1.9 (2026-09-25)</title></line>
<line x1="503.7" y1="302" x2="503.7" y2="308" stroke="#898781"><title>v1.2.0 (2026-10-01)</title></line>
<line x1="549.2" y1="302" x2="549.2" y2="308" stroke="#898781"><title>v1.2.1 (2026-10-04)</title></line>
<line x1="594.8" y1="302" x2="594.8" y2="308" stroke="#898781"><title>v1.2.2 (2026-10-07)</title></line>
<polyline points="48.0,289.1 63.2,285.0 78.4,276.9 108.8,241.5 139.1,229.3 275.8,217.0 412.5,217.0 427.7,215.7 442.9,214.3 458.1,211.6 473.3,208.9 488.5,207.5 503.7,202.1 518.9,188.5 534.1,185.8 549.2,179.0 579.6,164.0 594.8,159.9 610.0,157.2" fill="none" stroke="#2a78d6" stroke-width="2" stroke-linejoin="round" stroke-linecap="round"/>
<polyline points="48.0,295.9 63.2,294.6 78.4,293.2 108.8,286.4 139.1,285.0 275.8,282.3 412.5,282.3 427.7,282.3 442.9,282.3 458.1,281.0 473.3,281.0 488.5,281.0 503.7,278.2 518.9,272.8 534.1,270.1 549.2,263.3 579.6,260.6 594.8,259.2 610.0,259.2" fill="none" stroke="#eb6834" stroke-width="2" stroke-linejoin="round" stroke-linecap="round"/>
<polyline points="48.0,298.6 63.2,298.6 78.4,298.6 108.8,298.6 139.1,297.3 275.8,294.6 412.5,294.6 427.7,294.6 442.9,294.6 458.1,294.6 473.3,294.6 488.5,294.6 503.7,293.2 518.9,291.8 534.1,291.8 549.2,282.3 579.6,281.0 594.8,281.0 610.0,281.0" fill="none" stroke="#1baf7a" stroke-width="2" stroke-linejoin="round" stroke-linecap="round"/>
<circle cx="610.0" cy="157.2" r="4" fill="#2a78d6" stroke="#fcfcfb" stroke-width="2"><title>Windows Setup: 105</title></circle>
<text x="626.0" y="161.2" font-size="12" fill="#52514e"><tspan font-weight="600" fill="#0b0b0b">105</tspan> Windows Setup</text>
<circle cx="610.0" cy="259.2" r="4" fill="#eb6834" stroke="#fcfcfb" stroke-width="2"><title>Windows Portable: 30</title></circle>
<text x="626.0" y="263.2" font-size="12" fill="#52514e"><tspan font-weight="600" fill="#0b0b0b">30</tspan> Windows Portable</text>
<circle cx="610.0" cy="281.0" r="4" fill="#1baf7a" stroke="#fcfcfb" stroke-width="2"><title>Linux AppImage: 14</title></circle>
<text x="626.0" y="285.0" font-size="12" fill="#52514e"><tspan font-weight="600" fill="#0b0b0b">14</tspan> Linux AppImage</text>
</svg>
