<svg xmlns="http://www.w3.org/2000/svg" width="760" height="340" viewBox="0 0 760 340" role="img" aria-labelledby="title desc" font-family="system-ui, -apple-system, &quot;Segoe UI&quot;, Helvetica, Arial, sans-serif">
<title id="title">Installs</title>
<desc id="desc">Cumulative installer downloads and Microsoft Store installs from 2026-09-01 to 2026-09-28. Total 178: All platforms 178.</desc>
<rect x="0.5" y="0.5" width="759" height="339" rx="8" fill="#fcfcfb" stroke="rgba(11,11,11,0.10)"/>
<text x="48" y="34" font-size="16" font-weight="600" fill="#0b0b0b">Installs: 178</text>
<text x="48" y="56" font-size="13" fill="#52514e">Cumulative installer downloads and Microsoft Store installs</text>
<line x1="48" y1="70" x2="48" y2="82" stroke="#898781"/>
<text x="56" y="80" font-size="12" fill="#52514e">Release</text>
<line x1="48" y1="300.0" x2="610" y2="300.0" stroke="#c3c2b7"/>
<text x="40" y="304.0" font-size="11" text-anchor="end" fill="#898781" style="font-variant-numeric: tabular-nums">0</text>
<line x1="48" y1="249.0" x2="610" y2="249.0" stroke="#e1e0d9"/>
<text x="40" y="253.0" font-size="11" text-anchor="end" fill="#898781" style="font-variant-numeric: tabular-nums">50</text>
<line x1="48" y1="198.0" x2="610" y2="198.0" stroke="#e1e0d9"/>
<text x="40" y="202.0" font-size="11" text-anchor="end" fill="#898781" style="font-variant-numeric: tabular-nums">100</text>
<line x1="48" y1="147.0" x2="610" y2="147.0" stroke="#e1e0d9"/>
<text x="40" y="151.0" font-size="11" text-anchor="end" fill="#898781" style="font-variant-numeric: tabular-nums">150</text>
<line x1="48" y1="96.0" x2="610" y2="96.0" stroke="#e1e0d9"/>
<text x="40" y="100.0" font-size="11" text-anchor="end" fill="#898781" style="font-variant-numeric: tabular-nums">200</text>
<text x="48.0" y="324" font-size="11" text-anchor="start" fill="#898781">Sep 1</text>
<text x="193.7" y="324" font-size="11" text-anchor="middle" fill="#898781">Sep 8</text>
<text x="339.4" y="324" font-size="11" text-anchor="middle" fill="#898781">Sep 15</text>
<text x="464.3" y="324" font-size="11" text-anchor="middle" fill="#898781">Sep 21</text>
<text x="610.0" y="324" font-size="11" text-anchor="end" fill="#898781">Sep 28</text>
<line x1="48.0" y1="302" x2="48.0" y2="308" stroke="#898781"><title>v1.0.6 (2026-09-01)</title></line>
<line x1="68.8" y1="302" x2="68.8" y2="308" stroke="#898781"><title>v1.0.9 (2026-09-02)</title></line>
<line x1="89.6" y1="302" x2="89.6" y2="308" stroke="#898781"><title>v1.1.2 (2026-09-03)</title></line>
<line x1="131.3" y1="302" x2="131.3" y2="308" stroke="#898781"><title>v1.1.3 (2026-09-05)</title></line>
<line x1="172.9" y1="302" x2="172.9" y2="308" stroke="#898781"><title>v1.1.6 (2026-09-07)</title></line>
<line x1="360.2" y1="302" x2="360.2" y2="308" stroke="#898781"><title>v1.1.7 (2026-09-16)</title></line>
<line x1="547.6" y1="302" x2="547.6" y2="308" stroke="#898781"><title>v1.1.9 (2026-09-25)</title></line>
<polyline points="48.0,287.8 68.8,283.7 89.6,276.5 110.4,276.5 131.3,238.8 152.1,230.6 172.9,216.4 193.7,213.3 214.5,210.2 235.3,205.1 256.1,194.9 277.0,179.6 297.8,176.6 318.6,174.5 339.4,163.3 360.2,146.0 381.0,138.8 401.9,129.7 422.7,123.5 547.6,123.5 568.4,122.5 589.2,121.5 610.0,118.4" fill="none" stroke="#2a78d6" stroke-width="2" stroke-linejoin="round" stroke-linecap="round"/>
<circle cx="610.0" cy="118.4" r="4" fill="#2a78d6" stroke="#fcfcfb" stroke-width="2"><title>All platforms: 178</title></circle>
<text x="626.0" y="122.4" font-size="12" fill="#52514e"><tspan font-weight="600" fill="#0b0b0b">178</tspan> All platforms</text>
</svg>
