<svg xmlns="http://www.w3.org/2000/svg" width="760" height="340" viewBox="0 0 760 340" role="img" aria-labelledby="title desc" font-family="system-ui, -apple-system, &quot;Segoe UI&quot;, Helvetica, Arial, sans-serif">
<title id="title">Installs</title>
<desc id="desc">Cumulative installer downloads and Microsoft Store installs from 2026-09-01 to 2026-10-09. Total 327: All platforms 327.</desc>
<rect x="0.5" y="0.5" width="759" height="339" rx="8" fill="#1a1a19" stroke="rgba(255,255,255,0.10)"/>
<text x="48" y="34" font-size="16" font-weight="600" fill="#ffffff">Installs: 327</text>
<text x="48" y="56" font-size="13" fill="#c3c2b7">Cumulative installer downloads and Microsoft Store installs</text>
<line x1="48" y1="70" x2="48" y2="82" stroke="#898781"/>
<text x="56" y="80" font-size="12" fill="#c3c2b7">Release</text>
<line x1="48" y1="300.0" x2="610" y2="300.0" stroke="#383835"/>
<text x="40" y="304.0" font-size="11" text-anchor="end" fill="#898781" style="font-variant-numeric: tabular-nums">0</text>
<line x1="48" y1="249.0" x2="610" y2="249.0" stroke="#2c2c2a"/>
<text x="40" y="253.0" font-size="11" text-anchor="end" fill="#898781" style="font-variant-numeric: tabular-nums">100</text>
<line x1="48" y1="198.0" x2="610" y2="198.0" stroke="#2c2c2a"/>
<text x="40" y="202.0" font-size="11" text-anchor="end" fill="#898781" style="font-variant-numeric: tabular-nums">200</text>
<line x1="48" y1="147.0" x2="610" y2="147.0" stroke="#2c2c2a"/>
<text x="40" y="151.0" font-size="11" text-anchor="end" fill="#898781" style="font-variant-numeric: tabular-nums">300</text>
<line x1="48" y1="96.0" x2="610" y2="96.0" stroke="#2c2c2a"/>
<text x="40" y="100.0" font-size="11" text-anchor="end" fill="#898781" style="font-variant-numeric: tabular-nums">400</text>
<text x="48.0" y="324" font-size="11" text-anchor="start" fill="#898781">Sep 1</text>
<text x="195.9" y="324" font-size="11" text-anchor="middle" fill="#898781">Sep 11</text>
<text x="329.0" y="324" font-size="11" text-anchor="middle" fill="#898781">Sep 20</text>
<text x="462.1" y="324" font-size="11" text-anchor="middle" fill="#898781">Sep 29</text>
<text x="610.0" y="324" font-size="11" text-anchor="end" fill="#898781">Oct 9</text>
<line x1="48.0" y1="302" x2="48.0" y2="308" stroke="#898781"><title>v1.0.6 (2026-09-01)</title></line>
<line x1="62.8" y1="302" x2="62.8" y2="308" stroke="#898781"><title>v1.0.9 (2026-09-02)</title></line>
<line x1="77.6" y1="302" x2="77.6" y2="308" stroke="#898781"><title>v1.1.2 (2026-09-03)</title></line>
<line x1="107.2" y1="302" x2="107.2" y2="308" stroke="#898781"><title>v1.1.3 (2026-09-05)</title></line>
<line x1="136.7" y1="302" x2="136.7" y2="308" stroke="#898781"><title>v1.1.6 (2026-09-07)</title></line>
<line x1="269.8" y1="302" x2="269.8" y2="308" stroke="#898781"><title>v1.1.7 (2026-09-16)</title></line>
<line x1="402.9" y1="302" x2="402.9" y2="308" stroke="#898781"><title>v1.1.9 (2026-09-25)</title></line>
<line x1="491.7" y1="302" x2="491.7" y2="308" stroke="#898781"><title>v1.2.0 (2026-10-01)</title></line>
<line x1="536.1" y1="302" x2="536.1" y2="308" stroke="#898781"><title>v1.2.1 (2026-10-04)</title></line>
<line x1="580.4" y1="302" x2="580.4" y2="308" stroke="#898781"><title>v1.2.2 (2026-10-07)</title></line>
<polyline points="48.0,293.9 62.8,291.8 77.6,288.3 92.4,288.3 107.2,269.4 121.9,265.3 136.7,258.2 151.5,256.6 166.3,255.1 181.1,252.6 195.9,247.5 210.7,239.8 225.5,238.3 240.3,237.3 255.1,231.7 269.8,222.5 284.6,218.4 299.4,212.8 314.2,207.7 329.0,205.1 343.8,202.6 358.6,200.6 373.4,197.5 388.2,194.4 402.9,193.9 417.7,191.4 432.5,188.3 447.3,182.2 462.1,178.1 476.9,175.1 491.7,167.9 506.5,157.7 521.3,153.1 536.1,144.5 565.6,137.3 580.4,135.3 595.2,134.2 610.0,133.2" fill="none" stroke="#3987e5" stroke-width="2" stroke-linejoin="round" stroke-linecap="round"/>
<circle cx="610.0" cy="133.2" r="4" fill="#3987e5" stroke="#1a1a19" stroke-width="2"><title>All platforms: 327</title></circle>
<text x="626.0" y="137.2" font-size="12" fill="#c3c2b7"><tspan font-weight="600" fill="#ffffff">327</tspan> All platforms</text>
</svg>
