<svg xmlns="http://www.w3.org/2000/svg" width="760" height="340" viewBox="0 0 760 340" role="img" aria-labelledby="title desc" font-family="system-ui, -apple-system, &quot;Segoe UI&quot;, Helvetica, Arial, sans-serif">
<title id="title">Installs</title>
<desc id="desc">Cumulative installer downloads and Microsoft Store installs from 2026-09-01 to 2026-10-08. Total 325: All platforms 325.</desc>
<rect x="0.5" y="0.5" width="759" height="339" rx="8" fill="#fcfcfb" stroke="rgba(11,11,11,0.10)"/>
<text x="48" y="34" font-size="16" font-weight="600" fill="#0b0b0b">Installs: 325</text>
<text x="48" y="56" font-size="13" fill="#52514e">Cumulative installer downloads and Microsoft Store installs</text>
<line x1="48" y1="70" x2="48" y2="82" stroke="#898781"/>
<text x="56" y="80" font-size="12" fill="#52514e">Release</text>
<line x1="48" y1="300.0" x2="610" y2="300.0" stroke="#c3c2b7"/>
<text x="40" y="304.0" font-size="11" text-anchor="end" fill="#898781" style="font-variant-numeric: tabular-nums">0</text>
<line x1="48" y1="249.0" x2="610" y2="249.0" stroke="#e1e0d9"/>
<text x="40" y="253.0" font-size="11" text-anchor="end" fill="#898781" style="font-variant-numeric: tabular-nums">100</text>
<line x1="48" y1="198.0" x2="610" y2="198.0" stroke="#e1e0d9"/>
<text x="40" y="202.0" font-size="11" text-anchor="end" fill="#898781" style="font-variant-numeric: tabular-nums">200</text>
<line x1="48" y1="147.0" x2="610" y2="147.0" stroke="#e1e0d9"/>
<text x="40" y="151.0" font-size="11" text-anchor="end" fill="#898781" style="font-variant-numeric: tabular-nums">300</text>
<line x1="48" y1="96.0" x2="610" y2="96.0" stroke="#e1e0d9"/>
<text x="40" y="100.0" font-size="11" text-anchor="end" fill="#898781" style="font-variant-numeric: tabular-nums">400</text>
<text x="48.0" y="324" font-size="11" text-anchor="start" fill="#898781">Sep 1</text>
<text x="184.7" y="324" font-size="11" text-anchor="middle" fill="#898781">Sep 10</text>
<text x="321.4" y="324" font-size="11" text-anchor="middle" fill="#898781">Sep 19</text>
<text x="473.3" y="324" font-size="11" text-anchor="middle" fill="#898781">Sep 29</text>
<text x="610.0" y="324" font-size="11" text-anchor="end" fill="#898781">Oct 8</text>
<line x1="48.0" y1="302" x2="48.0" y2="308" stroke="#898781"><title>v1.0.6 (2026-09-01)</title></line>
<line x1="63.2" y1="302" x2="63.2" y2="308" stroke="#898781"><title>v1.0.9 (2026-09-02)</title></line>
<line x1="78.4" y1="302" x2="78.4" y2="308" stroke="#898781"><title>v1.1.2 (2026-09-03)</title></line>
<line x1="108.8" y1="302" x2="108.8" y2="308" stroke="#898781"><title>v1.1.3 (2026-09-05)</title></line>
<line x1="139.1" y1="302" x2="139.1" y2="308" stroke="#898781"><title>v1.1.6 (2026-09-07)</title></line>
<line x1="275.8" y1="302" x2="275.8" y2="308" stroke="#898781"><title>v1.1.7 (2026-09-16)</title></line>
<line x1="412.5" y1="302" x2="412.5" y2="308" stroke="#898781"><title>v1.1.9 (2026-09-25)</title></line>
<line x1="503.7" y1="302" x2="503.7" y2="308" stroke="#898781"><title>v1.2.0 (2026-10-01)</title></line>
<line x1="549.2" y1="302" x2="549.2" y2="308" stroke="#898781"><title>v1.2.1 (2026-10-04)</title></line>
<line x1="594.8" y1="302" x2="594.8" y2="308" stroke="#898781"><title>v1.2.2 (2026-10-07)</title></line>
<polyline points="48.0,293.9 63.2,291.8 78.4,288.3 93.6,288.3 108.8,269.4 123.9,265.3 139.1,258.2 154.3,256.6 169.5,255.1 184.7,252.6 199.9,247.5 215.1,239.8 230.3,238.3 245.5,237.3 260.6,231.7 275.8,222.5 291.0,218.4 306.2,212.8 321.4,207.7 336.6,205.1 351.8,202.6 367.0,200.6 382.2,197.5 397.4,194.4 412.5,193.9 427.7,191.4 442.9,188.3 458.1,182.2 473.3,178.1 488.5,175.1 503.7,167.9 518.9,157.7 534.1,153.1 549.2,144.5 579.6,137.3 594.8,135.3 610.0,134.2" fill="none" stroke="#2a78d6" stroke-width="2" stroke-linejoin="round" stroke-linecap="round"/>
<circle cx="610.0" cy="134.2" r="4" fill="#2a78d6" stroke="#fcfcfb" stroke-width="2"><title>All platforms: 325</title></circle>
<text x="626.0" y="138.2" font-size="12" fill="#52514e"><tspan font-weight="600" fill="#0b0b0b">325</tspan> All platforms</text>
</svg>
