<svg xmlns="http://www.w3.org/2000/svg" width="760" height="340" viewBox="0 0 760 340" role="img" aria-labelledby="title desc" font-family="system-ui, -apple-system, &quot;Segoe UI&quot;, Helvetica, Arial, sans-serif">
<title id="title">Installs</title>
<desc id="desc">Cumulative installer downloads and Microsoft Store installs from 2026-09-01 to 2026-10-03. Total 257: All platforms 257.</desc>
<rect x="0.5" y="0.5" width="759" height="339" rx="8" fill="#fcfcfb" stroke="rgba(11,11,11,0.10)"/>
<text x="48" y="34" font-size="16" font-weight="600" fill="#0b0b0b">Installs: 257</text>
<text x="48" y="56" font-size="13" fill="#52514e">Cumulative installer downloads and Microsoft Store installs</text>
<line x1="48" y1="70" x2="48" y2="82" stroke="#898781"/>
<text x="56" y="80" font-size="12" fill="#52514e">Release</text>
<line x1="48" y1="300.0" x2="610" y2="300.0" stroke="#c3c2b7"/>
<text x="40" y="304.0" font-size="11" text-anchor="end" fill="#898781" style="font-variant-numeric: tabular-nums">0</text>
<line x1="48" y1="232.0" x2="610" y2="232.0" stroke="#e1e0d9"/>
<text x="40" y="236.0" font-size="11" text-anchor="end" fill="#898781" style="font-variant-numeric: tabular-nums">100</text>
<line x1="48" y1="164.0" x2="610" y2="164.0" stroke="#e1e0d9"/>
<text x="40" y="168.0" font-size="11" text-anchor="end" fill="#898781" style="font-variant-numeric: tabular-nums">200</text>
<line x1="48" y1="96.0" x2="610" y2="96.0" stroke="#e1e0d9"/>
<text x="40" y="100.0" font-size="11" text-anchor="end" fill="#898781" style="font-variant-numeric: tabular-nums">300</text>
<text x="48.0" y="324" font-size="11" text-anchor="start" fill="#898781">Sep 1</text>
<text x="188.5" y="324" font-size="11" text-anchor="middle" fill="#898781">Sep 9</text>
<text x="329.0" y="324" font-size="11" text-anchor="middle" fill="#898781">Sep 17</text>
<text x="469.5" y="324" font-size="11" text-anchor="middle" fill="#898781">Sep 25</text>
<text x="610.0" y="324" font-size="11" text-anchor="end" fill="#898781">Oct 3</text>
<line x1="48.0" y1="302" x2="48.0" y2="308" stroke="#898781"><title>v1.0.6 (2026-09-01)</title></line>
<line x1="65.6" y1="302" x2="65.6" y2="308" stroke="#898781"><title>v1.0.9 (2026-09-02)</title></line>
<line x1="83.1" y1="302" x2="83.1" y2="308" stroke="#898781"><title>v1.1.2 (2026-09-03)</title></line>
<line x1="118.2" y1="302" x2="118.2" y2="308" stroke="#898781"><title>v1.1.3 (2026-09-05)</title></line>
<line x1="153.4" y1="302" x2="153.4" y2="308" stroke="#898781"><title>v1.1.6 (2026-09-07)</title></line>
<line x1="311.4" y1="302" x2="311.4" y2="308" stroke="#898781"><title>v1.1.7 (2026-09-16)</title></line>
<line x1="469.5" y1="302" x2="469.5" y2="308" stroke="#898781"><title>v1.1.9 (2026-09-25)</title></line>
<line x1="574.9" y1="302" x2="574.9" y2="308" stroke="#898781"><title>v1.2.0 (2026-10-01)</title></line>
<polyline points="48.0,291.8 65.6,289.1 83.1,284.4 100.7,284.4 118.2,259.2 135.8,253.8 153.4,244.2 170.9,242.2 188.5,240.2 206.1,236.8 223.6,230.0 241.2,219.8 258.8,217.7 276.3,216.4 293.9,208.9 311.4,196.6 329.0,191.2 346.6,183.7 364.1,176.9 381.7,173.5 399.2,170.1 416.8,167.4 434.4,163.3 451.9,159.2 469.5,158.6 487.1,155.8 504.6,151.8 522.2,145.0 539.8,143.6 557.3,142.9 574.9,138.2 592.4,128.0 610.0,125.2" fill="none" stroke="#2a78d6" stroke-width="2" stroke-linejoin="round" stroke-linecap="round"/>
<circle cx="610.0" cy="125.2" r="4" fill="#2a78d6" stroke="#fcfcfb" stroke-width="2"><title>All platforms: 257</title></circle>
<text x="626.0" y="129.2" font-size="12" fill="#52514e"><tspan font-weight="600" fill="#0b0b0b">257</tspan> All platforms</text>
</svg>
