<svg xmlns="http://www.w3.org/2000/svg" width="760" height="340" viewBox="0 0 760 340" role="img" aria-labelledby="title desc" font-family="system-ui, -apple-system, &quot;Segoe UI&quot;, Helvetica, Arial, sans-serif">
<title id="title">Installs</title>
<desc id="desc">Cumulative installer downloads and Microsoft Store installs from 2026-09-01 to 2026-10-01. Total 238: All platforms 238.</desc>
<rect x="0.5" y="0.5" width="759" height="339" rx="8" fill="#fcfcfb" stroke="rgba(11,11,11,0.10)"/>
<text x="48" y="34" font-size="16" font-weight="600" fill="#0b0b0b">Installs: 238</text>
<text x="48" y="56" font-size="13" fill="#52514e">Cumulative installer downloads and Microsoft Store installs</text>
<line x1="48" y1="70" x2="48" y2="82" stroke="#898781"/>
<text x="56" y="80" font-size="12" fill="#52514e">Release</text>
<line x1="48" y1="300.0" x2="610" y2="300.0" stroke="#c3c2b7"/>
<text x="40" y="304.0" font-size="11" text-anchor="end" fill="#898781" style="font-variant-numeric: tabular-nums">0</text>
<line x1="48" y1="232.0" x2="610" y2="232.0" stroke="#e1e0d9"/>
<text x="40" y="236.0" font-size="11" text-anchor="end" fill="#898781" style="font-variant-numeric: tabular-nums">100</text>
<line x1="48" y1="164.0" x2="610" y2="164.0" stroke="#e1e0d9"/>
<text x="40" y="168.0" font-size="11" text-anchor="end" fill="#898781" style="font-variant-numeric: tabular-nums">200</text>
<line x1="48" y1="96.0" x2="610" y2="96.0" stroke="#e1e0d9"/>
<text x="40" y="100.0" font-size="11" text-anchor="end" fill="#898781" style="font-variant-numeric: tabular-nums">300</text>
<text x="48.0" y="324" font-size="11" text-anchor="start" fill="#898781">Sep 1</text>
<text x="197.9" y="324" font-size="11" text-anchor="middle" fill="#898781">Sep 9</text>
<text x="329.0" y="324" font-size="11" text-anchor="middle" fill="#898781">Sep 16</text>
<text x="460.1" y="324" font-size="11" text-anchor="middle" fill="#898781">Sep 23</text>
<text x="610.0" y="324" font-size="11" text-anchor="end" fill="#898781">Oct 1</text>
<line x1="48.0" y1="302" x2="48.0" y2="308" stroke="#898781"><title>v1.0.6 (2026-09-01)</title></line>
<line x1="66.7" y1="302" x2="66.7" y2="308" stroke="#898781"><title>v1.0.9 (2026-09-02)</title></line>
<line x1="85.5" y1="302" x2="85.5" y2="308" stroke="#898781"><title>v1.1.2 (2026-09-03)</title></line>
<line x1="122.9" y1="302" x2="122.9" y2="308" stroke="#898781"><title>v1.1.3 (2026-09-05)</title></line>
<line x1="160.4" y1="302" x2="160.4" y2="308" stroke="#898781"><title>v1.1.6 (2026-09-07)</title></line>
<line x1="329.0" y1="302" x2="329.0" y2="308" stroke="#898781"><title>v1.1.7 (2026-09-16)</title></line>
<line x1="497.6" y1="302" x2="497.6" y2="308" stroke="#898781"><title>v1.1.9 (2026-09-25)</title></line>
<line x1="610.0" y1="302" x2="610.0" y2="308" stroke="#898781"><title>v1.2.0 (2026-10-01)</title></line>
<polyline points="48.0,291.8 66.7,289.1 85.5,284.4 104.2,284.4 122.9,259.2 141.7,253.8 160.4,244.2 179.1,242.2 197.9,240.2 216.6,236.8 235.3,230.0 254.1,219.8 272.8,217.7 291.5,216.4 310.3,208.9 329.0,196.6 347.7,191.2 366.5,183.7 385.2,176.9 403.9,173.5 422.7,170.1 441.4,167.4 460.1,163.3 478.9,159.2 497.6,158.6 516.3,155.8 535.1,151.8 553.8,145.0 572.5,143.6 591.3,142.9 610.0,138.2" fill="none" stroke="#2a78d6" stroke-width="2" stroke-linejoin="round" stroke-linecap="round"/>
<circle cx="610.0" cy="138.2" r="4" fill="#2a78d6" stroke="#fcfcfb" stroke-width="2"><title>All platforms: 238</title></circle>
<text x="626.0" y="142.2" font-size="12" fill="#52514e"><tspan font-weight="600" fill="#0b0b0b">238</tspan> All platforms</text>
</svg>
