<svg xmlns="http://www.w3.org/2000/svg" width="760" height="340" viewBox="0 0 760 340" role="img" aria-labelledby="title desc" font-family="system-ui, -apple-system, &quot;Segoe UI&quot;, Helvetica, Arial, sans-serif">
<title id="title">Updates</title>
<desc id="desc">Cumulative update package downloads across all versions from 2026-09-01 to 2026-10-03. Total 31: Windows updates 31, Linux updates 0.</desc>
<rect x="0.5" y="0.5" width="759" height="339" rx="8" fill="#fcfcfb" stroke="rgba(11,11,11,0.10)"/>
<text x="48" y="34" font-size="16" font-weight="600" fill="#0b0b0b">Updates: 31</text>
<text x="48" y="56" font-size="13" fill="#52514e">Cumulative update package downloads across all versions</text>
<line x1="48" y1="76" x2="64" y2="76" stroke="#2a78d6" stroke-width="2" stroke-linecap="round"/>
<text x="70" y="80" font-size="12" fill="#52514e">Windows updates</text>
<line x1="189.0" y1="76" x2="205.0" y2="76" stroke="#1baf7a" stroke-width="2" stroke-linecap="round"/>
<text x="211.0" y="80" font-size="12" fill="#52514e">Linux updates</text>
<line x1="317.6" y1="70" x2="317.6" y2="82" stroke="#898781"/>
<text x="325.6" y="80" font-size="12" fill="#52514e">Release</text>
<line x1="48" y1="300.0" x2="610" y2="300.0" stroke="#c3c2b7"/>
<text x="40" y="304.0" font-size="11" text-anchor="end" fill="#898781" style="font-variant-numeric: tabular-nums">0</text>
<line x1="48" y1="249.0" x2="610" y2="249.0" stroke="#e1e0d9"/>
<text x="40" y="253.0" font-size="11" text-anchor="end" fill="#898781" style="font-variant-numeric: tabular-nums">10</text>
<line x1="48" y1="198.0" x2="610" y2="198.0" stroke="#e1e0d9"/>
<text x="40" y="202.0" font-size="11" text-anchor="end" fill="#898781" style="font-variant-numeric: tabular-nums">20</text>
<line x1="48" y1="147.0" x2="610" y2="147.0" stroke="#e1e0d9"/>
<text x="40" y="151.0" font-size="11" text-anchor="end" fill="#898781" style="font-variant-numeric: tabular-nums">30</text>
<line x1="48" y1="96.0" x2="610" y2="96.0" stroke="#e1e0d9"/>
<text x="40" y="100.0" font-size="11" text-anchor="end" fill="#898781" style="font-variant-numeric: tabular-nums">40</text>
<text x="48.0" y="324" font-size="11" text-anchor="start" fill="#898781">Sep 1</text>
<text x="188.5" y="324" font-size="11" text-anchor="middle" fill="#898781">Sep 9</text>
<text x="329.0" y="324" font-size="11" text-anchor="middle" fill="#898781">Sep 17</text>
<text x="469.5" y="324" font-size="11" text-anchor="middle" fill="#898781">Sep 25</text>
<text x="610.0" y="324" font-size="11" text-anchor="end" fill="#898781">Oct 3</text>
<line x1="48.0" y1="302" x2="48.0" y2="308" stroke="#898781"><title>v1.0.6 (2026-09-01)</title></line>
<line x1="65.6" y1="302" x2="65.6" y2="308" stroke="#898781"><title>v1.0.9 (2026-09-02)</title></line>
<line x1="83.1" y1="302" x2="83.1" y2="308" stroke="#898781"><title>v1.1.2 (2026-09-03)</title></line>
<line x1="118.2" y1="302" x2="118.2" y2="308" stroke="#898781"><title>v1.1.3 (2026-09-05)</title></line>
<line x1="153.4" y1="302" x2="153.4" y2="308" stroke="#898781"><title>v1.1.6 (2026-09-07)</title></line>
<line x1="311.4" y1="302" x2="311.4" y2="308" stroke="#898781"><title>v1.1.7 (2026-09-16)</title></line>
<line x1="469.5" y1="302" x2="469.5" y2="308" stroke="#898781"><title>v1.1.9 (2026-09-25)</title></line>
<line x1="574.9" y1="302" x2="574.9" y2="308" stroke="#898781"><title>v1.2.0 (2026-10-01)</title></line>
<polyline points="48.0,274.5 65.6,264.3 83.1,249.0 118.2,208.2 153.4,177.6 311.4,167.4 469.5,167.4 487.1,152.1 504.6,152.1 522.2,152.1 539.8,152.1 557.3,152.1 574.9,152.1 592.4,141.9 610.0,141.9" fill="none" stroke="#2a78d6" stroke-width="2" stroke-linejoin="round" stroke-linecap="round"/>
<polyline points="48.0,300.0 65.6,300.0 83.1,300.0 118.2,300.0 153.4,300.0 311.4,300.0 469.5,300.0 487.1,300.0 504.6,300.0 522.2,300.0 539.8,300.0 557.3,300.0 574.9,300.0 592.4,300.0 610.0,300.0" fill="none" stroke="#1baf7a" stroke-width="2" stroke-linejoin="round" stroke-linecap="round"/>
<circle cx="610.0" cy="141.9" r="4" fill="#2a78d6" stroke="#fcfcfb" stroke-width="2"><title>Windows updates: 31</title></circle>
<text x="626.0" y="145.9" font-size="12" fill="#52514e"><tspan font-weight="600" fill="#0b0b0b">31</tspan> Windows updates</text>
<circle cx="610.0" cy="300.0" r="4" fill="#1baf7a" stroke="#fcfcfb" stroke-width="2"><title>Linux updates: 0</title></circle>
<text x="626.0" y="304.0" font-size="12" fill="#52514e"><tspan font-weight="600" fill="#0b0b0b">0</tspan> Linux updates</text>
</svg>
